<svg xmlns="http://www.w3.org/2000/svg" width="1920.501" height="1081.285" viewBox="0 0 1920.501 1081.285">
  <g id="Group_25" data-name="Group 25" transform="translate(0.302 1.203)">
    <g id="Group_24" data-name="Group 24">
      <path id="Path_3" data-name="Path 3" d="M280.933,270.427c-14.029,0-25.4-11.628-25.4-25.972s11.373-25.972,25.4-25.972,25.4,11.628,25.4,25.972C306.319,258.793,294.955,270.411,280.933,270.427Zm0-47.615A21.649,21.649,0,1,0,302.1,244.456,21.41,21.41,0,0,0,280.933,222.812Z" transform="translate(169.459 -47.19)" fill="#8a8a8a"/>
      <path id="Path_34" data-name="Path 34" d="M28.5,60.387,0,29.143,30.559,0l28.5,31.245ZM4.543,29.3,28.662,55.742,54.52,31.083,30.4,4.645Z" transform="matrix(0.883, 0.469, -0.469, 0.883, 1428.036, 852.572)" fill="#8a8a8a"/>
      <path id="Path_7" data-name="Path 7" d="M1265.1,890.285q-68.661-10.99-132.033-18.7l16.269-33.267c-5.647-1.924-30.117,17.321-30.117,17.321l20.705-96.228c-28.235,3.849-41.411,102-41.411,102l-32-32.716,15.752,37.042c-129.282-13.889-240.839-18.223-334.617-17.229l13.925-28.474c-5.647-1.924-30.118,17.321-30.118,17.321l20.706-96.227c-28.235,3.849-41.411,102-41.411,102l-32-32.717,16.684,39.234a1837.918,1837.918,0,0,0-192.042,15.812c13.894-44.256,62.417-86.8,62.417-86.8-37.309,11.867-56.719,31.2-66.766,49.123a788.7,788.7,0,0,1,40.413-267.559s-75.294,173.209-64,288.681l1.433,20.512c-65.5,10.448-98.374,20.866-98.374,20.866Z" transform="translate(84.36 189.715)" fill="#3f3d56"/>
      <ellipse id="Ellipse_2" data-name="Ellipse 2" cx="267.901" cy="265.961" rx="267.901" ry="265.961" transform="translate(1384.199 0)" fill="#6c63ff" opacity="0.3"/>
      <path id="Path_69" data-name="Path 69" d="M2666-3096l-.3,272.887S2989.57-2758.656,3085.286-3096C3084.042-3092.744,2666-3096,2666-3096Z" transform="translate(-2666 3094.797)" fill="#fb9aef"/>
      <path id="Path_70" data-name="Path 70" d="M4586-2016H4236.717s43.935-267.006,349.283-287.375C4585.952-2305.406,4586-2016,4586-2016Z" transform="translate(-2665.802 3096.082)" fill="#887ce1"/>
    </g>
    <path id="Path_71" data-name="Path 71" d="M0,0V422.957H732.042V0ZM730.431,421.261H1.614V1.7H730.427Z" transform="translate(65.613 293.651) rotate(8)" fill="none"/>
    <path id="Path_72" data-name="Path 72" d="M74.7,0,0,95.18,110.552,232.2l73.7-91Z" transform="translate(304.105 391.519) rotate(8)" fill="#6c63ff"/>
    <path id="Path_73" data-name="Path 73" d="M74.7,0,0,95.18,110.552,232.2l73.7-91Z" transform="translate(304.105 391.519) rotate(8)" opacity="0.1"/>
    <path id="Path_74" data-name="Path 74" d="M0,82.253H0a39.34,39.34,0,0,1,6.09-8.54L74.7.669S98.6-3.514,103.58,9.037L15.935,84.345Z" transform="translate(305.12 405.772) rotate(8)" fill="#f2f2f2"/>
    <path id="Path_75" data-name="Path 75" d="M0,83.152,101.588,246.32s9.96,7.322,19.919,3.138l104.078-73.739L115.034,0l-99.6,81.584Z" transform="translate(302.011 402.843) rotate(8)" fill="#6c63ff"/>
    <path id="Path_76" data-name="Path 76" d="M.5,6.011l79.848-1.45L80.3,6.229.453,7.678Z" transform="translate(326.999 476.032) rotate(-28)" fill="#3f3d56"/>
    <path id="Path_77" data-name="Path 77" d="M11.167.745,12.806.694,10.623,157.665l-1.638.051Z" transform="translate(315.022 503.601) rotate(-25)" fill="#3f3d56"/>
    <path id="Path_78" data-name="Path 78" d="M13.213.865l1.64-.033-4.012,156.8-1.64.033Z" transform="matrix(0.891, -0.454, 0.454, 0.891, 398.121, 452.294)" fill="#3f3d56"/>
    <path id="Path_79" data-name="Path 79" d="M.61,8.453,110.053,6.648,110.02,7.67.577,9.476Z" transform="matrix(0.819, -0.574, 0.574, 0.819, 294.836, 474.84)" fill="#3f3d56"/>
    <path id="Path_80" data-name="Path 80" d="M.707,10.341l112.263-3.6-.017,1.025L.69,11.366Z" transform="translate(296.792 474.589) rotate(-33)" fill="#3f3d56"/>
    <path id="Path_81" data-name="Path 81" d="M.644,9.147,114.256,6.771,114.228,7.8.616,10.173Z" transform="matrix(0.848, -0.53, 0.53, 0.848, 299.616, 475.748)" fill="#3f3d56"/>
  </g>
</svg>
